<?xml version="1.0" encoding="UTF-8" standalone="no"?>
<!-- Generator: Adobe Illustrator 16.0.0, SVG Export Plug-In . SVG Version: 6.00 Build 0)  -->

<svg
   xmlns:dc="http://purl.org/dc/elements/1.1/"
   xmlns:cc="http://creativecommons.org/ns#"
   xmlns:rdf="http://www.w3.org/1999/02/22-rdf-syntax-ns#"
   xmlns:svg="http://www.w3.org/2000/svg"
   xmlns="http://www.w3.org/2000/svg"
   xmlns:sodipodi="http://sodipodi.sourceforge.net/DTD/sodipodi-0.dtd"
   xmlns:inkscape="http://www.inkscape.org/namespaces/inkscape"
   version="1.1"
   id="Capa_1"
   x="0px"
   y="0px"
   width="512px"
   height="512px"
   viewBox="0 0 512 512"
   style="enable-background:new 0 0 512 512;"
   xml:space="preserve"
   inkscape:version="0.91 r13725"
   sodipodi:docname="mail.svg"><metadata
     id="metadata43"><rdf:RDF><cc:Work
         rdf:about=""><dc:format>image/svg+xml</dc:format><dc:type
           rdf:resource="http://purl.org/dc/dcmitype/StillImage" /><dc:title></dc:title></cc:Work></rdf:RDF></metadata><defs
     id="defs41" /><sodipodi:namedview
     pagecolor="#ffffff"
     bordercolor="#666666"
     borderopacity="1"
     objecttolerance="10"
     gridtolerance="10"
     guidetolerance="10"
     inkscape:pageopacity="0"
     inkscape:pageshadow="2"
     inkscape:window-width="1307"
     inkscape:window-height="744"
     id="namedview39"
     showgrid="false"
     inkscape:zoom="0.4609375"
     inkscape:cx="27.118644"
     inkscape:cy="256"
     inkscape:window-x="59"
     inkscape:window-y="24"
     inkscape:window-maximized="1"
     inkscape:current-layer="Capa_1" /><g
     id="g4460"
     style="fill:#ffffff"><path
       d="M 256,0 C 114.609,0 0,114.609 0,256 0,397.391 114.609,512 256,512 397.391,512 512,397.391 512,256 512,114.609 397.391,0 256,0 Z m 0,472 C 136.703,472 40,375.297 40,256 40,136.703 136.703,40 256,40 c 119.297,0 216,96.703 216,216 0,119.297 -96.703,216 -216,216 z"
       id="path5"
       inkscape:connector-curvature="0"
       style="fill:#ffffff" /><g
       style="fill:#ffffff"
       id="g9" /><g
       style="fill:#ffffff"
       id="g11" /><g
       style="fill:#ffffff"
       id="g13" /><g
       style="fill:#ffffff"
       id="g15" /><g
       style="fill:#ffffff"
       id="g17" /><g
       style="fill:#ffffff"
       id="g19" /><g
       style="fill:#ffffff"
       id="g21" /><g
       style="fill:#ffffff"
       id="g23" /><g
       style="fill:#ffffff"
       id="g25" /><g
       style="fill:#ffffff"
       id="g27" /><g
       style="fill:#ffffff"
       id="g29" /><g
       style="fill:#ffffff"
       id="g31" /><g
       style="fill:#ffffff"
       id="g33" /><g
       style="fill:#ffffff"
       id="g35" /><g
       style="fill:#ffffff"
       id="g37" /><g
       style="fill:#ffffff"
       transform="matrix(10.591622,0,0,10.591622,108.47459,108.4693)"
       id="g4346"><g
         style="fill:#ffffff"
         id="g4302"><g
           style="fill:#ffffff"
           id="g4304"><path
             style="fill:#ffffff"
             inkscape:connector-curvature="0"
             d="m 2.203,5.331 10.034,7.948 c 0.455,0.36 1.082,0.52 1.691,0.49 0.608,0.03 1.235,-0.129 1.69,-0.49 L 25.652,5.331 C 26.456,4.698 26.274,4.179 25.254,4.179 l -11.325,0 -11.325,0 c -1.021,0 -1.203,0.519 -0.401,1.152 z"
             id="path4306" /><path
             style="fill:#ffffff"
             inkscape:connector-curvature="0"
             d="m 26.377,7.428 -10.965,8.325 c -0.41,0.308 -0.947,0.458 -1.482,0.451 -0.536,0.007 -1.073,-0.144 -1.483,-0.451 L 1.48,7.428 C 0.666,6.811 0,7.142 0,8.163 l 0,13.659 c 0,1.021 0.836,1.857 1.857,1.857 l 12.071,0 12.072,0 c 1.021,0 1.857,-0.836 1.857,-1.857 l 0,-13.659 c 0,-1.021 -0.666,-1.352 -1.48,-0.735 z"
             id="path4308" /></g></g><g
         style="fill:#ffffff"
         id="g4310" /><g
         style="fill:#ffffff"
         id="g4312" /><g
         style="fill:#ffffff"
         id="g4314" /><g
         style="fill:#ffffff"
         id="g4316" /><g
         style="fill:#ffffff"
         id="g4318" /><g
         style="fill:#ffffff"
         id="g4320" /><g
         style="fill:#ffffff"
         id="g4322" /><g
         style="fill:#ffffff"
         id="g4324" /><g
         style="fill:#ffffff"
         id="g4326" /><g
         style="fill:#ffffff"
         id="g4328" /><g
         style="fill:#ffffff"
         id="g4330" /><g
         style="fill:#ffffff"
         id="g4332" /><g
         style="fill:#ffffff"
         id="g4334" /><g
         style="fill:#ffffff"
         id="g4336" /><g
         style="fill:#ffffff"
         id="g4338" /></g></g></svg>