<?xml version="1.0" encoding="utf-8"?>
<!-- Generator: Adobe Illustrator 16.0.0, SVG Export Plug-In . SVG Version: 6.00 Build 0)  -->
<!DOCTYPE svg PUBLIC "-//W3C//DTD SVG 1.1//EN" "http://www.w3.org/Graphics/SVG/1.1/DTD/svg11.dtd">
<svg version="1.1" id="Layer_1" xmlns="http://www.w3.org/2000/svg" xmlns:xlink="http://www.w3.org/1999/xlink" x="0px" y="0px"
	 width="48px" height="17.791px" viewBox="0 0 48 17.791" enable-background="new 0 0 48 17.791" xml:space="preserve">
<g>
	<path fill="#009444" d="M0,5.194v1.224h4.948v2.79c0.255,2.209-1.167,2.006-1.167,2.006c-1.292,0.051-1.941-0.936-1.941-0.936
		l-1.141,0.918l5.117,6.631l1.138-0.781l-3.607-4.658c3.469,0.412,3.029-2.783,3.029-2.783V6.417h2.346h1.531v11.374h1.377V6.417
		h2.194V5.194H8.722H0z"/>
	<path fill="#009444" d="M8.45,4.174h0.018l0,0c2.509-0.011,3.822-2.175,3.878-2.267l-0.921-0.548
		c-0.01,0.019-1.054,1.737-2.965,1.743C6.566,3.097,5.506,1.317,5.496,1.3L5.032,1.568L4.568,1.834
		C4.624,1.931,5.937,4.174,8.45,4.174z"/>
	<path fill="#009444" d="M48,5.194h-2.514L41.365,0L39.63,0.358l4.981,4.835H28.607l-1.828-5.117l-1.352,0.362l2.514,4.755h-0.162
		l-5.31-5.117l-1.174,0.769l5.714,4.348h-8.188v1.224h2.704v4.438h-0.96c-0.455,0-0.824,0.344-0.824,0.797
		c0,0.15,0.039,0.268,0.109,0.389l-0.003,0.008c0.029,0.053,0.062,0.107,0.099,0.162c0.571,0.727,1.01,1.246,1.322,1.555
		c0.432,0.451,0.774,0.674,1.034,0.674l0.347-0.051l0.204-0.154v-0.156v-0.285v-1.611h4.387v5.609h1.377V6.417h5.356v4.438h-0.956
		c-0.453,0-0.824,0.344-0.824,0.799c0,0.148,0.039,0.266,0.108,0.389l-0.003,0.006c0.03,0.055,0.063,0.111,0.1,0.166
		c0.57,0.727,1.01,1.248,1.322,1.559c0.24,0.252,0.454,0.449,0.639,0.551h0.006c0.1,0.051,0.227,0.104,0.357,0.104
		c0.339,0,0.627-0.285,0.627-0.623v-7.38l-0.002-0.007h3.996l-0.167,0.007v11.367h1.378V6.417h3.869l-0.146,0.007v11.367h1.377
		V6.417H48V5.194z M27.29,10.855h-4.438V6.417h4.438V10.855z"/>
	<circle fill="#009444" cx="29.762" cy="2.45" r="0.894"/>
</g>
</svg>
