<?xml version="1.0" encoding="UTF-8" standalone="no"?>
<!-- Created with Inkscape (http://www.inkscape.org/) -->

<svg
   xmlns:dc="http://purl.org/dc/elements/1.1/"
   xmlns:cc="http://creativecommons.org/ns#"
   xmlns:rdf="http://www.w3.org/1999/02/22-rdf-syntax-ns#"
   xmlns:svg="http://www.w3.org/2000/svg"
   xmlns="http://www.w3.org/2000/svg"
   xmlns:sodipodi="http://sodipodi.sourceforge.net/DTD/sodipodi-0.dtd"
   xmlns:inkscape="http://www.inkscape.org/namespaces/inkscape"
   width="600"
   height="600"
   viewBox="0 0 600.00001 600.00001"
   id="svg2"
   version="1.1"
   inkscape:version="0.91 r13725"
   sodipodi:docname="consulting.svg">
  <defs
     id="defs4" />
  <sodipodi:namedview
     id="base"
     pagecolor="#ffffff"
     bordercolor="#666666"
     borderopacity="1.0"
     inkscape:pageopacity="0.0"
     inkscape:pageshadow="2"
     inkscape:zoom="0.49497475"
     inkscape:cx="98.683718"
     inkscape:cy="309.33842"
     inkscape:document-units="px"
     inkscape:current-layer="layer1"
     showgrid="false"
     units="px"
     inkscape:window-width="1307"
     inkscape:window-height="744"
     inkscape:window-x="59"
     inkscape:window-y="24"
     inkscape:window-maximized="1" />
  <metadata
     id="metadata7">
    <rdf:RDF>
      <cc:Work
         rdf:about="">
        <dc:format>image/svg+xml</dc:format>
        <dc:type
           rdf:resource="http://purl.org/dc/dcmitype/StillImage" />
        <dc:title></dc:title>
      </cc:Work>
    </rdf:RDF>
  </metadata>
  <g
     inkscape:label="Layer 1"
     inkscape:groupmode="layer"
     id="layer1"
     transform="translate(0,-452.36216)">
    <circle
       style="opacity:1;fill:#436eee;fill-opacity:1;stroke:none;stroke-width:0;stroke-miterlimit:4;stroke-dasharray:none;stroke-opacity:1"
       id="path4136"
       cx="300"
       cy="752.36224"
       r="299.28571" />
    <g
       id="g5032"
       transform="matrix(0.78744949,0,0,0.78744949,108.64977,561.01202)">
      <g
         id="g4993">
        <path
           d="m 298.4,424.7 0,14.2 c 0,11.3 -8.3,20.7 -19.1,22.3 l -3.5,12.9 c -1.9,7 -8.2,11.9 -15.5,11.9 l -34.7,0 c -7.3,0 -13.6,-4.9 -15.5,-11.9 l -3.4,-12.9 c -10.9,-1.7 -19.2,-11 -19.2,-22.4 l 0,-14.2 c 0,-7.6 6.1,-13.7 13.7,-13.7 l 83.5,0 c 7.6,0.1 13.7,6.2 13.7,13.8 z m 64.3,-191.4 c 0,32.3 -12.8,61.6 -33.6,83.1 -15.8,16.4 -26,37.3 -29.4,59.6 -1.5,9.6 -9.8,16.7 -19.6,16.7 l -74.3,0 c -9.7,0 -18.1,-7 -19.5,-16.6 -3.5,-22.3 -13.8,-43.5 -29.6,-59.8 -20.4,-21.2 -33.1,-50 -33.4,-81.7 -0.7,-66.6 52.3,-120.5 118.9,-121 66.5,-0.5 120.5,53.3 120.5,119.7 z M 256.5,160.8 c 0,-7.4 -6,-13.5 -13.5,-13.5 -47.6,0 -86.4,38.7 -86.4,86.4 0,7.4 6,13.5 13.5,13.5 7.4,0 13.5,-6 13.5,-13.5 0,-32.8 26.7,-59.4 59.4,-59.4 7.5,0 13.5,-6 13.5,-13.5 z M 243,74.3 c 7.4,0 13.5,-6 13.5,-13.5 l 0,-47.3 C 256.5,6.1 250.5,0 243,0 235.5,0 229.5,6 229.5,13.5 l 0,47.3 c 0,7.5 6.1,13.5 13.5,13.5 z M 84.1,233.2 c 0,-7.4 -6,-13.5 -13.5,-13.5 l -47.3,0 c -7.4,0 -13.5,6 -13.5,13.5 0,7.4 6,13.5 13.5,13.5 l 47.3,0 c 7.5,0 13.5,-6 13.5,-13.5 z m 378.6,-13.5 -47.3,0 c -7.4,0 -13.5,6 -13.5,13.5 0,7.4 6,13.5 13.5,13.5 l 47.3,0 c 7.4,0 13.5,-6 13.5,-13.5 0,-7.4 -6,-13.5 -13.5,-13.5 z M 111.6,345.6 78.1,379.1 c -5.3,5.3 -5.3,13.8 0,19.1 2.6,2.6 6.1,3.9 9.5,3.9 3.4,0 6.9,-1.3 9.5,-3.9 l 33.5,-33.5 c 5.3,-5.3 5.3,-13.8 0,-19.1 -5.2,-5.3 -13.8,-5.3 -19,0 z M 364.9,124.8 c 3.4,0 6.9,-1.3 9.5,-3.9 l 33.5,-33.5 c 5.3,-5.3 5.3,-13.8 0,-19.1 -5.3,-5.3 -13.8,-5.3 -19.1,0 l -33.5,33.5 c -5.3,5.3 -5.3,13.8 0,19.1 2.7,2.6 6.1,3.9 9.6,3.9 z m -253.3,-4 c 2.6,2.6 6.1,3.9 9.5,3.9 3.4,0 6.9,-1.3 9.5,-3.9 5.3,-5.3 5.3,-13.8 0,-19.1 L 97.1,68.2 C 91.8,62.9 83.3,62.9 78,68.2 72.7,73.5 72.7,82 78,87.3 l 33.6,33.5 z m 262.8,224.8 c -5.3,-5.3 -13.8,-5.3 -19.1,0 -5.3,5.3 -5.3,13.8 0,19.1 l 33.5,33.5 c 2.6,2.6 6.1,3.9 9.5,3.9 3.4,0 6.9,-1.3 9.5,-3.9 5.3,-5.3 5.3,-13.8 0,-19.1 l -33.4,-33.5 z"
           id="XMLID_49_"
           inkscape:connector-curvature="0"
           style="fill:#ffffff" />
      </g>
      <g
         id="g4996" />
      <g
         id="g4998" />
      <g
         id="g5000" />
      <g
         id="g5002" />
      <g
         id="g5004" />
      <g
         id="g5006" />
      <g
         id="g5008" />
      <g
         id="g5010" />
      <g
         id="g5012" />
      <g
         id="g5014" />
      <g
         id="g5016" />
      <g
         id="g5018" />
      <g
         id="g5020" />
      <g
         id="g5022" />
      <g
         id="g5024" />
    </g>
  </g>
</svg>
