<?xml version="1.0" encoding="UTF-8" standalone="no"?>
<!-- Created with Inkscape (http://www.inkscape.org/) -->

<svg
   xmlns:dc="http://purl.org/dc/elements/1.1/"
   xmlns:cc="http://creativecommons.org/ns#"
   xmlns:rdf="http://www.w3.org/1999/02/22-rdf-syntax-ns#"
   xmlns:svg="http://www.w3.org/2000/svg"
   xmlns="http://www.w3.org/2000/svg"
   xmlns:sodipodi="http://sodipodi.sourceforge.net/DTD/sodipodi-0.dtd"
   xmlns:inkscape="http://www.inkscape.org/namespaces/inkscape"
   width="600"
   height="600"
   viewBox="0 0 600.00001 600.00001"
   id="svg2"
   version="1.1"
   inkscape:version="0.91 r13725"
   sodipodi:docname="support.svg">
  <defs
     id="defs4" />
  <sodipodi:namedview
     id="base"
     pagecolor="#ffffff"
     bordercolor="#666666"
     borderopacity="1.0"
     inkscape:pageopacity="0.0"
     inkscape:pageshadow="2"
     inkscape:zoom="0.49497475"
     inkscape:cx="98.683718"
     inkscape:cy="309.33842"
     inkscape:document-units="px"
     inkscape:current-layer="layer1"
     showgrid="false"
     units="px"
     inkscape:window-width="1307"
     inkscape:window-height="744"
     inkscape:window-x="59"
     inkscape:window-y="24"
     inkscape:window-maximized="1" />
  <metadata
     id="metadata7">
    <rdf:RDF>
      <cc:Work
         rdf:about="">
        <dc:format>image/svg+xml</dc:format>
        <dc:type
           rdf:resource="http://purl.org/dc/dcmitype/StillImage" />
        <dc:title></dc:title>
      </cc:Work>
    </rdf:RDF>
  </metadata>
  <g
     inkscape:label="Layer 1"
     inkscape:groupmode="layer"
     id="layer1"
     transform="translate(0,-452.36216)">
    <circle
       style="opacity:1;fill:#436eee;fill-opacity:1;stroke:none;stroke-width:0;stroke-miterlimit:4;stroke-dasharray:none;stroke-opacity:1"
       id="path4136"
       cx="300"
       cy="752.36224"
       r="299.28571" />
    <g
       id="g5193"
       transform="matrix(1.3358495,0,0,1.3358495,110.66923,563.03229)">
      <path
         id="path5155"
         d="m 200.133,157.32 c -2.105,-2.105 -4.904,-3.264 -7.881,-3.264 -2.977,0 -5.776,1.159 -7.881,3.264 l -9.678,9.678 -14.194,-14.194 43.496,-43.494 c 7.016,3.017 14.634,4.613 22.498,4.613 0.001,0 0,0 0.001,0 15.248,0 29.576,-5.948 40.341,-16.746 14.694,-14.74 20.177,-36.316 14.308,-56.309 -0.341,-1.163 -1.272,-2.06 -2.446,-2.359 -1.174,-0.3 -2.42,0.044 -3.276,0.903 L 239.547,75.395 C 237.394,74.522 231.97,71.545 221.932,61.537 211.894,51.529 208.898,46.114 208.017,43.963 L 243.889,7.978 c 0.856,-0.859 1.195,-2.105 0.893,-3.279 C 244.479,3.525 243.58,2.597 242.415,2.259 237.244,0.76 231.886,0 226.489,0 211.24,0 196.915,5.946 186.152,16.744 169.259,33.69 165.282,58.692 174.171,79.448 L 130.656,122.962 86.118,78.424 C 86.079,78.348 86.052,78.27 86.009,78.195 L 65.651,43.294 c -0.352,-0.603 -0.83,-1.12 -1.403,-1.518 L 29.906,17.948 c -1.899,-1.318 -4.467,-1.086 -6.1,0.547 l -15.3,15.3 c -1.634,1.633 -1.864,4.202 -0.547,6.1 l 23.828,34.342 c 0.398,0.573 0.915,1.052 1.518,1.403 l 34.902,20.358 c 0.077,0.045 0.158,0.078 0.237,0.118 l 44.528,44.528 -33.508,33.508 c -7.016,-3.017 -14.633,-4.613 -22.497,-4.613 -15.25,0 -29.577,5.947 -40.342,16.746 -14.694,14.74 -20.176,36.317 -14.306,56.307 0.341,1.163 1.271,2.06 2.446,2.359 1.174,0.298 2.42,-0.044 3.276,-0.903 l 35.874,-35.984 c 2.153,0.874 7.576,3.853 17.613,13.858 10.04,10.009 13.036,15.423 13.916,17.574 l -35.872,35.985 c -0.856,0.859 -1.195,2.105 -0.893,3.279 0.303,1.174 1.202,2.102 2.367,2.439 5.17,1.5 10.528,2.261 15.926,2.261 15.247,0 29.573,-5.947 40.336,-16.745 10.742,-10.776 16.645,-25.089 16.622,-40.305 -0.012,-7.841 -1.609,-15.433 -4.617,-22.424 l 33.502,-33.501 14.194,14.194 -9.677,9.677 c -2.105,2.106 -3.265,4.905 -3.265,7.882 0,2.978 1.159,5.776 3.264,7.881 l 68.364,68.363 c 2.105,2.105 4.903,3.264 7.88,3.264 2.977,0 5.776,-1.159 7.882,-3.264 l 37.036,-37.037 c 2.106,-2.105 3.266,-4.904 3.266,-7.882 0,-2.977 -1.159,-5.776 -3.264,-7.881 L 200.133,157.32 Z m 24.198,96.844 c -2.437,2.438 -6.386,2.438 -8.821,0 l -43.859,-43.858 c -2.436,-2.435 -2.436,-6.384 0,-8.821 2.436,-2.436 6.385,-2.436 8.821,0.002 l 43.858,43.857 c 2.436,2.435 2.437,6.385 10e-4,8.82 z m 19.846,-19.846 c -2.435,2.436 -6.386,2.436 -8.821,0 l -43.857,-43.859 c -2.436,-2.435 -2.436,-6.385 -0.001,-8.82 2.436,-2.436 6.386,-2.436 8.821,0 l 43.858,43.859 c 2.435,2.436 2.435,6.385 0,8.82 z"
         inkscape:connector-curvature="0"
         style="fill:#ffffff" />
      <g
         id="g5157" />
      <g
         id="g5159" />
      <g
         id="g5161" />
      <g
         id="g5163" />
      <g
         id="g5165" />
      <g
         id="g5167" />
      <g
         id="g5169" />
      <g
         id="g5171" />
      <g
         id="g5173" />
      <g
         id="g5175" />
      <g
         id="g5177" />
      <g
         id="g5179" />
      <g
         id="g5181" />
      <g
         id="g5183" />
      <g
         id="g5185" />
    </g>
  </g>
</svg>
